<?xml version="1.0" encoding="utf-8"?>
<!-- Generator: Adobe Illustrator 21.1.0, SVG Export Plug-In . SVG Version: 6.00 Build 0)  -->
<!DOCTYPE svg PUBLIC "-//W3C//DTD SVG 1.1//EN" "http://www.w3.org/Graphics/SVG/1.1/DTD/svg11.dtd">
<svg version="1.1" id="Capa_1" xmlns="http://www.w3.org/2000/svg" xmlns:xlink="http://www.w3.org/1999/xlink" x="0px" y="0px"
	 width="512px" height="512px" viewBox="0 0 512 512" style="enable-background:new 0 0 512 512;" xml:space="preserve">
<style type="text/css">
	.st0{fill:#999999;}
</style>
<g>
	<path class="st0" d="M512,201.1c0-7.6-5.7-12.3-17.2-14.2l-154.5-22.5l-69.2-140c-3.9-8.4-8.9-12.6-15.1-12.6
		c-6.2,0-11.2,4.2-15.1,12.6l-69.2,140L17.2,186.9C5.7,188.8,0,193.5,0,201.1c0,4.3,2.6,9.2,7.7,14.8l112,108.9L93.2,478.6
		c-0.4,2.9-0.6,4.9-0.6,6.2c0,4.3,1.1,7.9,3.2,10.9c2.2,3,5.4,4.5,9.7,4.5c3.7,0,7.8-1.2,12.3-3.7L256,423.8l138.2,72.6
		c4.3,2.5,8.4,3.7,12.3,3.7c4.1,0,7.2-1.5,9.4-4.5c2.1-3,3.2-6.6,3.2-10.9c0-2.7-0.1-4.7-0.3-6.2l-26.5-153.8L504,215.8
		C509.3,210.5,512,205.6,512,201.1z"/>
</g>
</svg>
