<?xml version="1.0" encoding="utf-8"?>
<!-- Generator: Adobe Illustrator 21.1.0, SVG Export Plug-In . SVG Version: 6.00 Build 0)  -->
<!DOCTYPE svg PUBLIC "-//W3C//DTD SVG 1.1//EN" "http://www.w3.org/Graphics/SVG/1.1/DTD/svg11.dtd">
<svg version="1.1" id="Capa_1" xmlns="http://www.w3.org/2000/svg" xmlns:xlink="http://www.w3.org/1999/xlink" x="0px" y="0px"
	 width="297px" height="297px" viewBox="0 0 297 297" style="enable-background:new 0 0 297 297;" xml:space="preserve">
<style type="text/css">
	.st0{fill:#DA3743;}
</style>
<g>
	<path class="st0" d="M293.4,82.4c-2.1-2.1-4.9-3.2-7.9-2.9l-46,3.4c-5.5,0.4-9.7,5.2-9.3,10.7c0.4,5.5,5.2,9.7,10.7,9.3l19.1-1.4
		l-67.4,67.5l-78.4-66.4c-4-3.4-9.9-3.1-13.6,0.6L4.3,199.5c-3.9,3.9-3.9,10.3,0,14.2c2,2,4.5,2.9,7.1,2.9s5.1-1,7.1-2.9l89.9-89.9
		l78.4,66.4c4,3.4,9.9,3.1,13.6-0.6l73.7-73.8l-1.5,18.4c-0.5,5.5,3.6,10.4,9.2,10.8c0.3,0,0.6,0,0.8,0c5.2,0,9.6-4,10-9.2l3.8-45.6
		C296.5,87.3,295.5,84.5,293.4,82.4z"/>
</g>
</svg>
