<?xml version="1.0" encoding="utf-8"?>
<!-- Generator: Adobe Illustrator 21.1.0, SVG Export Plug-In . SVG Version: 6.00 Build 0)  -->
<!DOCTYPE svg PUBLIC "-//W3C//DTD SVG 1.1//EN" "http://www.w3.org/Graphics/SVG/1.1/DTD/svg11.dtd">
<svg version="1.1" id="Layer_1" xmlns="http://www.w3.org/2000/svg" xmlns:xlink="http://www.w3.org/1999/xlink" x="0px" y="0px"
	 width="106.2px" height="92.4px" viewBox="0 0 106.2 92.4" style="enable-background:new 0 0 106.2 92.4;" xml:space="preserve">
<style type="text/css">
	.st0{fill:#3EA3DB;}
	.st1{fill:#FFFFFF;stroke:#FFFFFF;stroke-width:0.2815;stroke-linecap:round;stroke-linejoin:round;stroke-miterlimit:10;}
	.st2{fill:#FFFFFF;}
</style>
<polygon class="st0" points="79.5,0.3 26.7,0.3 0.2,46.1 26.7,91.9 79.5,91.9 106,46.1 "/>
<g>
	<g>
		<path class="st1" d="M25.6,18.2c0-0.4,0-0.8,0-1.2c1.4,0,3.2-0.1,4.9-0.1c1.4,0,2.3,0.1,3.5,0.4c1.7,0.5,3.1,2,3.1,3.8
			c0,2.2-1.5,3.8-3.4,4.6v0.1c1.2,0.5,1.8,2,3.1,4.5c0.9,1.6,1.1,1.9,1.4,1.9l1.5,0.1c0,0.4,0,0.8,0,1.2c-0.5,0-1.1,0-1.7,0
			c-0.5,0-1.3,0-1.6,0c-0.9-1.2-2.4-4.7-3.2-5.9c-0.6-0.9-1.1-1.2-2.4-1.2c-1,0-1.4,0-1.5,0.1v5.7l2.1,0.1c0,0.4,0,0.8,0,1.2
			c-0.9,0-2,0-3.1,0c-1,0-1.9,0-2.8,0c0-0.4,0-0.8,0-1.2l1.6-0.1c0.1,0,0.1-0.1,0.1-0.1l0-13.9L25.6,18.2z M29.3,25.3
			c0.1,0.1,0.6,0.1,1.3,0.1c3.2,0,4.3-2,4.3-3.5c0-2.4-1.7-3.6-4.2-3.6c-0.8,0-1.3,0.1-1.4,0.1L29.3,25.3z"/>
		<path class="st1" d="M42.7,32.3C42.7,32.3,42.8,32.3,42.7,32.3l0.1-14l-1.9-0.1c0-0.4,0-0.8,0.1-1.2c0.9,0,1.9,0,2.9,0
			c0.8,0,5,0,5.6,0c1.1,0,1.6,0,2.2,0c0.1,1.3,0.2,2.6,0.2,3.9C51.5,20.9,51,21,50.5,21l-0.4-2.2c-0.1-0.2-0.2-0.4-0.6-0.4
			c-0.7-0.1-2.4-0.1-4-0.1c-0.3,0-0.6,0-0.8,0l0,6.2c1.4,0,2.6,0,4,0c0.4,0,0.6-0.2,0.6-0.5l0.1-1.2c0.4,0,0.9,0,1.3,0
			c0,0.8,0,1.6-0.1,2.4c0,0.8,0,1.6,0,2.3c-0.4,0-0.9,0.1-1.3,0.1l-0.1-1.3c0-0.4-0.2-0.5-0.6-0.5c-1.1,0-2.4,0-3.9,0l0,6.1
			c0,0.4,0.1,0.5,1.4,0.5c2.1,0,3.5-0.1,3.9-0.2c0.2-0.1,0.4-0.2,0.5-0.5l0.8-2.3c0.5,0.1,0.9,0.2,1.3,0.3c-0.3,1.3-0.6,2.7-0.9,4
			c-1.2,0-4.5,0-7.9,0c-1.1,0-2.1,0-3,0c0-0.4,0-0.8,0-1.2L42.7,32.3z"/>
		<path class="st1" d="M56.9,31.6c0,0.1,0.1,0.2,0.2,0.3c0.5,0.3,1.5,0.6,2.4,0.6c1.2,0,2.3-0.4,2.9-1c0.6-0.6,0.8-1.2,0.8-2
			c0-2.2-1.2-2.6-3.6-3.7c-2.2-1-3.8-2.2-3.8-4.4c0-1.4,0.7-2.6,1.6-3.4c1-0.8,2.4-1.2,4.1-1.2c1.1,0,2.5,0.2,3.1,0.6
			c0.1,1.2,0.2,2.5,0.3,3.8c-0.5,0.1-0.9,0.1-1.4,0.2L63,18.9c-0.1-0.2-0.1-0.3-0.2-0.3c-0.4-0.3-1.1-0.5-1.9-0.5
			c-0.9,0-1.8,0.2-2.4,0.8c-0.5,0.5-1,1.2-1,2.1c0,1.8,0.8,2.2,3.5,3.3c2.5,1.1,4,2.2,4,4.5c0,1.4-0.5,2.7-1.5,3.5
			c-1,0.9-2.5,1.4-4.5,1.4c-1.2,0-2.9-0.3-3.7-0.6c-0.1-1.3-0.2-2.7-0.3-4c0.5-0.1,1-0.2,1.4-0.2L56.9,31.6z"/>
		<path class="st1" d="M72.7,32.3c0.1,0,0.1-0.1,0.1-0.1V18.3c-2.2,0-2.7,0.1-3.3,0.1c-0.5,0.1-0.6,0.2-0.6,0.5l-0.4,2.5
			c-0.5-0.1-1-0.1-1.4-0.1c0.1-1.4,0.2-2.8,0.3-4.2c0.5,0,1.3,0,2.3,0c0.6,0,3.5,0,4.3,0c0.8,0,3.7,0,4.3,0c1,0,1.6,0,2.2,0
			c0.1,1.4,0.2,2.8,0.2,4.2c-0.4,0.1-0.9,0.1-1.4,0.2l-0.4-2.5c0-0.3-0.2-0.4-0.6-0.5c-0.7-0.1-1.1-0.1-3.3-0.1l-0.1,14l2.3,0.1
			c0,0.4,0,0.8,0,1.2c-0.9,0-2.2,0-3.2,0c-1.1,0-2.2,0-3.3,0c0-0.4,0-0.8,0-1.2L72.7,32.3z"/>
		<path class="st2" d="M48.9,53.4c-1.1-1-1.7-2.4-1.7-4.2c0-1.8,0.7-3.4,2.2-4.6c1-0.8,2.3-1.2,3.5-1.2c1.2,0,2.2,0.3,3.1,1
			c1.3,1,2,2.4,2,4.4c0,2-0.8,3.7-2.2,4.7c-1,0.8-2,1.1-3.4,1.1C51,54.6,49.7,54.2,48.9,53.4z M54.7,52.7c0.8-0.9,1.1-2.1,1.1-3.8
			c0-1.4-0.3-2.6-1-3.4c-0.6-0.7-1.3-0.9-2.2-0.9c-0.7,0-1.5,0.3-2.1,0.9c-0.8,0.8-1.2,2.1-1.2,3.6c0,1.6,0.4,2.8,1.2,3.6
			c0.5,0.5,1.2,0.8,2,0.8C53.3,53.5,54.1,53.3,54.7,52.7z"/>
		<path class="st2" d="M31.7,74.1l1.5-0.1c0.1,0,0.1-0.1,0.1-0.1c0-2.5,0-5.5,0-8l-1.8,0c0-0.3,0-0.7,0-1c1-0.2,3.4-0.7,3.5-0.7
			c0,0,0.1,0,0.1,0.1c0,0.7,0.1,2.1,0.1,3.4h0.1c1.4-2.8,2.4-3.5,3.4-3.5c0.6,0,1.2,0.1,1.5,0.3c0,0.5-0.4,1.6-0.7,1.9
			c-0.2-0.1-0.8-0.2-1.3-0.2c-0.3,0-0.5,0.1-0.9,0.4c-0.5,0.4-1,1.1-1.7,2.4c-0.3,0.6-0.4,1.5-0.4,2.3c0,0.9,0,1.9,0,2.7l2.4,0.1
			c0,0.3,0,0.7-0.1,1.1c-0.9,0-2.1,0-3.2,0c-0.9,0-1.8,0-2.6,0C31.6,74.9,31.6,74.5,31.7,74.1z"/>
		<path class="st2" d="M47.1,74.3c-1.8,1-2.8,1.1-3.7,1.1c-1.3,0-2.9-1-2.9-2.5c0-1.4,1.6-3.4,4.9-3.4c0.9,0,1.5,0,1.7,0
			c0.1-2.7-0.6-3.8-2.1-3.8c-1.1,0-2.2,0.7-3,1.7c-0.3-0.3-0.6-0.6-0.9-1c1.1-1.1,2.5-2.2,4.5-2.2c1.9,0,3.4,1.3,3.4,4.1
			c0,1.2,0,4.3-0.1,5.3c0,0.3,0.1,0.4,0.2,0.4l1.7-0.1c0,0.3,0,0.7,0,1.1c-0.3,0.1-1.8,0.3-2.9,0.3c-0.3-0.2-0.5-0.6-0.8-1.1H47.1z
			 M44.3,74.1c0.7,0,1.8-0.4,2.8-1c0.1,0,0.1-0.1,0.1-0.2c0-0.5,0-1.5,0-2.2c-0.1,0-0.7-0.1-1.4-0.1c-2.3,0-3.2,0.9-3.2,2.1
			C42.7,73.5,43.3,74.1,44.3,74.1z"/>
		<path class="st2" d="M52,66c0-0.4,0-0.7,0.1-1c1-0.2,3.3-0.7,3.5-0.7c0.1,0,0.1,0,0.1,0.1c0.1,0.5,0.2,1.2,0.3,1.5l0.1,0
			c2.5-1.5,3.1-1.6,4.2-1.6c1.3,0,2.2,0.9,2.7,1.7c0.4,0.6,0.5,1.3,0.5,1.9c0,1.8-0.1,4.2-0.1,6.1l1.6,0.1c0,0.4,0,0.8,0,1.1
			c-0.8,0-1.8,0-2.7,0c-0.8,0-1.7,0-2.4,0c0-0.4,0-0.8,0-1.1l1.5-0.1c0.1,0,0.1-0.1,0.1-0.1c0-1.4,0-3.2,0-4.6c0-1,0-2-0.3-2.6
			c-0.5-0.9-1.1-1-1.7-1c-0.9,0-2.4,0.7-3.3,1.5c-0.1,1.9-0.1,4.9-0.1,6.7l1.8,0.1c0,0.4,0,0.8,0,1.1c-0.8,0-1.9,0-2.9,0
			c-0.8,0-1.7,0-2.5,0c0-0.4,0-0.8,0-1.1l1.5-0.1c0,0,0.1-0.1,0.1-0.1l0-7.9L52,66z"/>
		<path class="st2" d="M68.6,74.8c-0.7-0.6-0.7-1.2-0.7-2c0-1.3,0-3.4,0.1-4c0-0.8,0-2.3,0-2.9c-0.5,0-1.2,0-1.7,0
			c0-0.4,0-0.9,0-1.2c0.6,0,1.1,0,1.6-0.1c0.1,0,0.2-0.1,0.2-0.2c0-0.7,0.1-1.6,0.1-2.3c0.7-0.4,1.7-0.9,1.8-0.9
			c0.1,0,0.1,0,0.1,0.1c0,0.9-0.1,2.2-0.1,3.3c1.3,0,2.7,0,4,0c0,0.5-0.1,0.9-0.1,1.3c-1.2,0-2.5,0-4,0c0,0.4,0,2,0,2.8
			c0,1,0,2.6,0,3.8c0,1.1,0.8,1.6,1.6,1.6c0.6,0,1.5-0.2,2.4-0.4c0.1,0.4,0.1,0.8,0.2,1.1c-1.2,0.4-2.6,0.6-3.5,0.6
			C70,75.4,69.3,75.4,68.6,74.8z"/>
	</g>
	<g>
		<g>
			<rect x="51.9" y="35.9" class="st2" width="1.3" height="5.8"/>
			<path class="st2" d="M53.3,41.9h-1.3c-0.1,0-0.1-0.1-0.1-0.1v-5.8c0-0.1,0.1-0.1,0.1-0.1h1.3c0.1,0,0.1,0.1,0.1,0.1v5.8
				C53.4,41.8,53.3,41.9,53.3,41.9z M52.1,41.6h1V36h-1V41.6z"/>
		</g>
		<g>
			<rect x="51.9" y="56.1" class="st2" width="1.3" height="5.8"/>
			<path class="st2" d="M53.3,62.1h-1.3c-0.1,0-0.1-0.1-0.1-0.1v-5.8c0-0.1,0.1-0.1,0.1-0.1h1.3c0.1,0,0.1,0.1,0.1,0.1V62
				C53.4,62,53.3,62.1,53.3,62.1z M52.1,61.8h1v-5.5h-1V61.8z"/>
		</g>
	</g>
</g>
</svg>
