<?xml version="1.0" encoding="utf-8"?>
<!-- Generator: Adobe Illustrator 21.1.0, SVG Export Plug-In . SVG Version: 6.00 Build 0)  -->
<!DOCTYPE svg PUBLIC "-//W3C//DTD SVG 1.1//EN" "http://www.w3.org/Graphics/SVG/1.1/DTD/svg11.dtd">
<svg version="1.1" id="Layer_2" xmlns="http://www.w3.org/2000/svg" xmlns:xlink="http://www.w3.org/1999/xlink" x="0px" y="0px"
	 width="138px" height="138px" viewBox="0 0 138 138" style="enable-background:new 0 0 138 138;" xml:space="preserve">
<style type="text/css">
	.st0{fill:#FFFFFF;stroke:#FFFFFF;stroke-width:0.5;stroke-linecap:round;stroke-linejoin:round;stroke-miterlimit:10;}
	.st1{fill:#FFFFFF;}
</style>
<g>
	<g>
		<path class="st0" d="M19.8,19c0-0.7,0-1.4,0-2.1c2.5,0,5.7-0.1,8.7-0.1c2.6,0,4,0.1,6.2,0.7c3,0.8,5.5,3.6,5.5,6.7
			c0,3.9-2.6,6.8-6.1,8.1v0.2c2.2,0.9,3.3,3.6,5.6,7.9c1.5,2.9,1.9,3.3,2.5,3.3l2.7,0.1c0,0.7,0,1.4,0,2.1c-0.8,0-2,0-3,0
			c-0.9,0-2.3,0-2.9,0c-1.6-2.1-4.3-8.3-5.8-10.5c-1-1.6-2-2.1-4.2-2.1c-1.8,0-2.4,0-2.6,0.1v10.2l3.8,0.2c0,0.6,0,1.4,0,2.1
			c-1.5,0-3.6,0-5.4,0c-1.7,0-3.4,0-4.9,0c0-0.7,0-1.4,0-2.1l2.9-0.1c0.1,0,0.2-0.1,0.2-0.2l0-24.6L19.8,19z M26.4,31.5
			c0.2,0.1,1.1,0.1,2.4,0.1c5.7,0,7.7-3.6,7.7-6.3c0-4.2-3-6.3-7.4-6.3c-1.5,0-2.3,0.1-2.6,0.2L26.4,31.5z"/>
		<path class="st0" d="M50.2,44c0,0,0.1,0,0.1-0.1V19.1L47,19c0-0.7,0-1.4,0.1-2.1c1.5,0,3.4,0,5.2,0c1.4,0,8.9,0,9.9,0
			c1.9,0,2.9,0,3.9,0c0.2,2.2,0.3,4.5,0.4,6.8c-0.7,0.1-1.5,0.2-2.4,0.3l-0.7-3.9c-0.1-0.4-0.3-0.7-1-0.8c-1.2-0.1-4.2-0.2-7.1-0.2
			c-0.4,0-1.1,0-1.3,0l0,11.1c2.5,0,4.6,0,7.1,0c0.8,0,1-0.3,1-0.9l0.2-2.2c0.7,0,1.6,0,2.3,0c0,1.4,0,2.8-0.1,4.3
			c0,1.3,0,2.8,0,4.1c-0.7,0-1.5,0.1-2.3,0.1L62,33.2c0-0.6-0.3-0.9-1.1-0.9c-2,0-4.3,0-7,0l0,10.8c0,0.8,0.1,0.9,2.5,0.9
			c3.6,0,6.2-0.1,7-0.3c0.4-0.1,0.6-0.4,0.8-0.9l1.4-4.1c0.8,0.1,1.7,0.3,2.3,0.5c-0.5,2.3-1,4.7-1.6,7.1c-2.1,0-7.9,0-14,0
			c-1.9,0-3.7,0-5.3,0c0-0.7,0-1.4,0-2.1L50.2,44z"/>
		<path class="st0" d="M75.5,42.8c0,0.2,0.1,0.4,0.4,0.5c0.9,0.6,2.6,1,4.2,1c2.1,0,4.1-0.7,5.1-1.8c1-1.1,1.4-2.2,1.4-3.6
			c0-3.9-2.1-4.6-6.5-6.6c-4-1.8-6.8-3.9-6.8-7.8c0-2.5,1.3-4.7,2.9-6c1.7-1.3,4.3-2.1,7.3-2.1c2,0,4.4,0.4,5.5,1
			c0.2,2.2,0.4,4.5,0.5,6.7c-0.8,0.1-1.7,0.2-2.5,0.3l-0.8-4.2c-0.1-0.3-0.2-0.5-0.3-0.5c-0.7-0.6-1.9-0.9-3.3-0.9
			c-1.6,0-3.2,0.4-4.2,1.4c-0.9,0.8-1.7,2.1-1.7,3.7c0,3.1,1.5,3.9,6.2,5.9c4.5,2,7.1,4,7.1,8.1c0,2.5-0.9,4.7-2.7,6.3
			c-1.8,1.7-4.4,2.5-8.1,2.5c-2.2,0-5.1-0.5-6.6-1.1c-0.2-2.3-0.4-4.8-0.6-7.1c0.9-0.1,1.8-0.3,2.6-0.4L75.5,42.8z"/>
		<path class="st0" d="M103.6,44c0.1,0,0.2-0.1,0.2-0.2V19.1c-3.9,0-4.8,0.1-5.8,0.2c-0.9,0.1-1,0.4-1.1,0.9l-0.7,4.4
			c-0.8-0.1-1.7-0.1-2.5-0.2c0.2-2.5,0.3-5,0.4-7.4c0.9,0,2.3,0,4.1,0c1,0,6.2,0,7.6,0c1.4,0,6.5,0,7.6,0c1.8,0,2.9,0,3.9,0
			c0.1,2.4,0.3,4.9,0.4,7.4c-0.8,0.1-1.7,0.2-2.5,0.3l-0.7-4.4c0-0.5-0.3-0.8-1.1-0.8c-1.2-0.1-2-0.1-5.9-0.1L107.3,44l4.1,0.1
			c0,0.6,0,1.4,0,2.1c-1.6,0-3.8,0-5.7,0c-1.9,0-4,0-5.8,0c0-0.7,0-1.4,0-2.1L103.6,44z"/>
		<path class="st1" d="M61.3,81.5c-2-1.8-3-4.2-3-7.4c0-3.2,1.2-6.1,3.8-8.2c1.7-1.4,4-2.1,6.2-2.1c2.1,0,4,0.5,5.6,1.7
			c2.2,1.7,3.5,4.2,3.5,7.8c0,3.6-1.5,6.6-3.9,8.4c-1.7,1.3-3.6,1.9-6,1.9C64.9,83.6,62.8,82.9,61.3,81.5z M71.5,80.2
			c1.5-1.6,2-3.6,2-6.7c0-2.5-0.5-4.6-1.8-6c-1.1-1.2-2.3-1.7-3.8-1.7c-1.3,0-2.7,0.4-3.8,1.5c-1.4,1.5-2.1,3.6-2.1,6.4
			c0,2.9,0.6,4.9,2.1,6.4c0.9,0.9,2.2,1.5,3.6,1.5C69.2,81.6,70.5,81.2,71.5,80.2z"/>
		<path class="st1" d="M30.7,118.3l2.6-0.1c0.1,0,0.1-0.1,0.1-0.1c0-4.5,0-9.8,0-14.1l-3.3,0c0-0.6,0-1.3,0-1.8
			c1.8-0.3,6-1.2,6.3-1.2c0,0,0.1,0,0.1,0.1c0,1.2,0.1,3.6,0.2,6h0.2c2.6-5,4.2-6.2,6.1-6.2c1,0,2.1,0.2,2.7,0.5
			c0,0.9-0.7,2.9-1.3,3.3c-0.4-0.1-1.5-0.4-2.3-0.4c-0.5,0-0.9,0.2-1.5,0.7c-0.9,0.7-1.8,2-3,4.2c-0.5,1-0.7,2.7-0.8,4.1
			c0,1.6,0,3.4,0,4.8l4.3,0.1c0,0.6,0,1.3-0.1,1.9c-1.6,0-3.7,0-5.7,0c-1.5,0-3.2,0-4.7,0C30.6,119.6,30.6,118.9,30.7,118.3z"/>
		<path class="st1" d="M58.2,118.6c-3.3,1.7-4.9,2-6.5,2c-2.2,0-5.1-1.8-5.1-4.4c0-2.5,2.8-6.1,8.8-6.1c1.6,0,2.7,0,3.1,0
			c0.1-4.8-1-6.7-3.7-6.7c-1.9,0-3.9,1.3-5.4,3c-0.5-0.5-1.1-1.1-1.6-1.7c1.9-1.9,4.5-4,8-4c3.3,0,6,2.3,6,7.3c0,2.1,0,7.6-0.1,9.4
			c0,0.5,0.1,0.7,0.4,0.7l3-0.1c0,0.5,0,1.3,0,1.9c-0.6,0.2-3.1,0.6-5.2,0.6c-0.5-0.4-0.9-1.1-1.5-2H58.2z M53.2,118.2
			c1.3,0,3.3-0.6,5-1.8c0.1,0,0.1-0.1,0.1-0.4c0-0.9,0-2.6,0-3.8c-0.2,0-1.2-0.1-2.5-0.1c-4,0-5.6,1.7-5.6,3.7
			C50.2,117.2,51.4,118.2,53.2,118.2z"/>
		<path class="st1" d="M66.7,103.9c0-0.6,0-1.3,0.1-1.8c1.8-0.3,5.8-1.2,6.2-1.2c0.1,0,0.1,0,0.1,0.1c0.1,0.9,0.4,2.1,0.5,2.7l0.2,0
			c4.5-2.7,5.4-2.9,7.4-2.9c2.3,0,4,1.6,4.8,3.1c0.6,1.1,0.9,2.3,0.9,3.3c0,3.2-0.1,7.5-0.1,10.9l2.9,0.1c0,0.6,0,1.3,0,2
			c-1.4,0-3.2,0-4.7,0c-1.4,0-3.1,0-4.3,0c0-0.6,0-1.3,0-2l2.6-0.1c0.1,0,0.1-0.1,0.1-0.2c0-2.4,0-5.6,0-8.1c0-1.8,0-3.6-0.6-4.5
			c-0.9-1.6-2-1.7-3.1-1.7c-1.7,0-4.2,1.2-5.9,2.6c-0.1,3.4-0.1,8.6-0.1,11.9l3.2,0.1c0,0.6,0,1.3,0,2c-1.5,0-3.4,0-5.1,0
			c-1.4,0-3,0-4.4,0c0-0.6,0-1.3,0-2l2.7-0.1c0,0,0.1-0.1,0.1-0.2l0-13.9L66.7,103.9z"/>
		<path class="st1" d="M96.3,119.4c-1.2-1.1-1.3-2.1-1.3-3.5c0-2.3,0-6,0.1-7.1c0-1.4,0-4,0-5.2c-0.9,0-2.1,0-3.1,0
			c0-0.7,0-1.5,0-2.2c1,0,2,0,2.9-0.1c0.1,0,0.3-0.1,0.3-0.3c0-1.3,0.1-2.8,0.1-4.1c1.2-0.8,3.1-1.5,3.2-1.5c0.1,0,0.1,0,0.1,0.1
			c0,1.5-0.1,4-0.1,5.8c2.3,0,4.8,0,7.1,0c0,0.8-0.1,1.7-0.1,2.3c-2.1,0-4.5,0-7,0c0,0.7,0,3.6,0,5c0,1.8,0,4.5,0,6.8
			c0,1.9,1.3,2.8,2.9,2.8c1,0,2.7-0.3,4.3-0.7c0.1,0.6,0.2,1.4,0.3,2c-2.1,0.8-4.7,1.1-6.3,1.1C98.8,120.6,97.5,120.5,96.3,119.4z"
			/>
	</g>
	<g>
		<g>
			<rect x="66.7" y="50.4" class="st1" width="2.3" height="10.3"/>
			<path class="st1" d="M69,61h-2.3c-0.1,0-0.2-0.1-0.2-0.2V50.4c0-0.1,0.1-0.2,0.2-0.2H69c0.1,0,0.2,0.1,0.2,0.2v10.3
				C69.2,60.9,69.1,61,69,61z M66.9,60.5h1.8v-9.9h-1.8V60.5z"/>
		</g>
		<g>
			<rect x="66.7" y="86.3" class="st1" width="2.3" height="10.3"/>
			<path class="st1" d="M69,96.9h-2.3c-0.1,0-0.2-0.1-0.2-0.2V86.3c0-0.1,0.1-0.2,0.2-0.2H69c0.1,0,0.2,0.1,0.2,0.2v10.3
				C69.2,96.8,69.1,96.9,69,96.9z M66.9,96.4h1.8v-9.9h-1.8V96.4z"/>
		</g>
	</g>
</g>
</svg>
